HIERARCHY
ROOT Hips
{
	OFFSET 0.053599 88.859886 3.107447
	CHANNELS 6 Xposition Yposition Zposition Zrotation Yrotation Xrotation 
	JOINT Spine
	{
		OFFSET -0.000000 8.814246 -2.080107
		CHANNELS 3 Zrotation Yrotation Xrotation
		JOINT Spine1
		{
			OFFSET 0.000000 8.844141 0.000000
			CHANNELS 3 Zrotation Yrotation Xrotation
			JOINT Spine2
			{
				OFFSET -0.000000 11.682268 0.000000
				CHANNELS 3 Zrotation Yrotation Xrotation
				JOINT Spine3
				{
					OFFSET 0.000000 11.746700 0.000000
					CHANNELS 3 Zrotation Yrotation Xrotation
					JOINT Neck
					{
						OFFSET -0.000000 17.658264 -0.000000
						CHANNELS 3 Zrotation Yrotation Xrotation
						JOINT Neck1
						{
							OFFSET -0.000000 5.101515 -0.000000
							CHANNELS 3 Zrotation Yrotation Xrotation
							JOINT Head
							{
								OFFSET 0.000000 5.101515 0.000000
								CHANNELS 3 Zrotation Yrotation Xrotation
								JOINT HeadEnd
								{
									OFFSET 0.000000 11.655085 0.000000
									CHANNELS 3 Zrotation Yrotation Xrotation
									End Site
									{
										OFFSET 0.000000 0.000000 0.000000
									}
								}
							}
						}
					}
					JOINT RightShoulder
					{
						OFFSET -2.625389 11.175210 0.000000
						CHANNELS 3 Zrotation Yrotation Xrotation
						JOINT RightArm
						{
							OFFSET -0.000000 10.434715 -0.000000
							CHANNELS 3 Zrotation Yrotation Xrotation
							JOINT RightForeArm
							{
								OFFSET -0.000000 29.628420 0.000000
								CHANNELS 3 Zrotation Yrotation Xrotation
								JOINT RightHand
								{
									OFFSET -0.000000 22.857611 0.000000
									CHANNELS 3 Zrotation Yrotation Xrotation
									JOINT RightHandThumb1
									{
										OFFSET -2.867323 3.959563 2.944291
										CHANNELS 3 Zrotation Yrotation Xrotation
										JOINT RightHandThumb2
										{
											OFFSET 0.000000 3.350399 0.000000
											CHANNELS 3 Zrotation Yrotation Xrotation
											JOINT RightHandThumb3
											{
												OFFSET 0.000000 3.756509 -0.000000
												CHANNELS 3 Zrotation Yrotation Xrotation
												JOINT RightHandThumb4
												{
													OFFSET 0.000000 3.147345 0.000000
													CHANNELS 3 Zrotation Yrotation Xrotation
													End Site
													{
														OFFSET 0.000000 0.000000 0.000000
													}
												}
											}
										}
									}
									JOINT RightHandIndex1
									{
										OFFSET -0.086752 10.030893 2.345280
										CHANNELS 3 Zrotation Yrotation Xrotation
										JOINT RightHandIndex2
										{
											OFFSET -0.000000 4.061090 0.000000
											CHANNELS 3 Zrotation Yrotation Xrotation
											JOINT RightHandIndex3
											{
												OFFSET -0.000000 3.248873 0.000000
												CHANNELS 3 Zrotation Yrotation Xrotation
												JOINT RightHandIndex4
												{
													OFFSET 0.000000 2.639709 -0.000000
													CHANNELS 3 Zrotation Yrotation Xrotation
													End Site
													{
														OFFSET 0.000000 0.000000 0.000000
													}
												}
											}
										}
									}
									JOINT RightHandMiddle1
									{
										OFFSET 0.104102 9.502952 0.006768
										CHANNELS 3 Zrotation Yrotation Xrotation
										JOINT RightHandMiddle2
										{
											OFFSET 0.000000 4.568727 0.000000
											CHANNELS 3 Zrotation Yrotation Xrotation
											JOINT RightHandMiddle3
											{
												OFFSET 0.000000 3.654981 -0.000000
												CHANNELS 3 Zrotation Yrotation Xrotation
												JOINT RightHandMiddle4
												{
													OFFSET -0.000000 2.741236 -0.000000
													CHANNELS 3 Zrotation Yrotation Xrotation
													End Site
													{
														OFFSET 0.000000 0.000000 0.000000
													}
												}
											}
										}
									}
									JOINT RightHandRing1
									{
										OFFSET 0.086752 8.921708 -2.267442
										CHANNELS 3 Zrotation Yrotation Xrotation
										JOINT RightHandRing2
										{
											OFFSET -0.000000 4.061090 0.000000
											CHANNELS 3 Zrotation Yrotation Xrotation
											JOINT RightHandRing3
											{
												OFFSET 0.000000 3.654981 -0.000000
												CHANNELS 3 Zrotation Yrotation Xrotation
												JOINT RightHandRing4
												{
													OFFSET 0.000000 2.741236 -0.000000
													CHANNELS 3 Zrotation Yrotation Xrotation
													End Site
													{
														OFFSET 0.000000 0.000000 0.000000
													}
												}
											}
										}
									}
									JOINT RightHandPinky1
									{
										OFFSET -0.173504 7.976997 -4.467199
										CHANNELS 3 Zrotation Yrotation Xrotation
										JOINT RightHandPinky2
										{
											OFFSET 0.000000 3.350399 -0.000000
											CHANNELS 3 Zrotation Yrotation Xrotation
											JOINT RightHandPinky3
											{
												OFFSET -0.000000 2.842763 0.000000
												CHANNELS 3 Zrotation Yrotation Xrotation
												JOINT RightHandPinky4
												{
													OFFSET -0.000000 2.639709 0.000000
													CHANNELS 3 Zrotation Yrotation Xrotation
													End Site
													{
														OFFSET 0.000000 0.000000 0.000000
													}
												}
											}
										}
									}
									JOINT RightForeArmEnd
									{
										OFFSET 0.000000 0.000000 0.000000
										CHANNELS 3 Zrotation Yrotation Xrotation
										End Site
										{
											OFFSET 0.000000 0.000000 0.000000
										}
									}
								}
								JOINT RightArmEnd
								{
									OFFSET 0.000000 0.000000 0.000000
									CHANNELS 3 Zrotation Yrotation Xrotation
									End Site
									{
										OFFSET 0.000000 0.000000 0.000000
									}
								}
							}
						}
					}
					JOINT LeftShoulder
					{
						OFFSET 2.625389 11.175210 0.000000
						CHANNELS 3 Zrotation Yrotation Xrotation
						JOINT LeftArm
						{
							OFFSET 0.000000 10.813635 -0.000000
							CHANNELS 3 Zrotation Yrotation Xrotation
							JOINT LeftForeArm
							{
								OFFSET 0.000000 28.724781 0.000000
								CHANNELS 3 Zrotation Yrotation Xrotation
								JOINT LeftHand
								{
									OFFSET 0.644384 25.716167 -0.328871
									CHANNELS 3 Zrotation Yrotation Xrotation
									JOINT LeftHandThumb1
									{
										OFFSET 2.867323 3.959563 2.944291
										CHANNELS 3 Zrotation Yrotation Xrotation
										JOINT LeftHandThumb2
										{
											OFFSET 0.000000 3.350399 0.000000
											CHANNELS 3 Zrotation Yrotation Xrotation
											JOINT LeftHandThumb3
											{
												OFFSET -0.000000 3.756509 0.000000
												CHANNELS 3 Zrotation Yrotation Xrotation
												JOINT LeftHandThumb4
												{
													OFFSET -0.000000 3.100000 0.000000
													CHANNELS 3 Zrotation Yrotation Xrotation
													End Site
													{
														OFFSET 0.000000 0.000000 0.000000
													}
												}
											}
										}
									}
									JOINT LeftHandIndex1
									{
										OFFSET 0.086752 10.030893 2.345280
										CHANNELS 3 Zrotation Yrotation Xrotation
										JOINT LeftHandIndex2
										{
											OFFSET -0.000000 4.061090 -0.000000
											CHANNELS 3 Zrotation Yrotation Xrotation
											JOINT LeftHandIndex3
											{
												OFFSET 0.000000 3.248873 -0.000000
												CHANNELS 3 Zrotation Yrotation Xrotation
												JOINT LeftHandIndex4
												{
													OFFSET 0.000000 2.639709 -0.000000
													CHANNELS 3 Zrotation Yrotation Xrotation
													End Site
													{
														OFFSET 0.000000 0.000000 0.000000
													}
												}
											}
										}
									}
									JOINT LeftHandMiddle1
									{
										OFFSET -0.104102 9.502952 0.006768
										CHANNELS 3 Zrotation Yrotation Xrotation
										JOINT LeftHandMiddle2
										{
											OFFSET -0.000000 4.568727 -0.000000
											CHANNELS 3 Zrotation Yrotation Xrotation
											JOINT LeftHandMiddle3
											{
												OFFSET 0.000000 3.654981 0.000000
												CHANNELS 3 Zrotation Yrotation Xrotation
												JOINT LeftHandMiddle4
												{
													OFFSET 0.000000 2.741236 -0.000000
													CHANNELS 3 Zrotation Yrotation Xrotation
													End Site
													{
														OFFSET 0.000000 0.000000 0.000000
													}
												}
											}
										}
									}
									JOINT LeftHandRing1
									{
										OFFSET -0.086752 8.921708 -2.267442
										CHANNELS 3 Zrotation Yrotation Xrotation
										JOINT LeftHandRing2
										{
											OFFSET 0.000000 4.061090 0.000000
											CHANNELS 3 Zrotation Yrotation Xrotation
											JOINT LeftHandRing3
											{
												OFFSET 0.000000 3.654981 0.000000
												CHANNELS 3 Zrotation Yrotation Xrotation
												JOINT LeftHandRing4
												{
													OFFSET 0.000000 2.741236 0.000000
													CHANNELS 3 Zrotation Yrotation Xrotation
													End Site
													{
														OFFSET 0.000000 0.000000 0.000000
													}
												}
											}
										}
									}
									JOINT LeftHandPinky1
									{
										OFFSET 0.173504 7.976997 -4.467199
										CHANNELS 3 Zrotation Yrotation Xrotation
										JOINT LeftHandPinky2
										{
											OFFSET -0.000000 3.350399 -0.000000
											CHANNELS 3 Zrotation Yrotation Xrotation
											JOINT LeftHandPinky3
											{
												OFFSET 0.000000 2.842763 0.000000
												CHANNELS 3 Zrotation Yrotation Xrotation
												JOINT LeftHandPinky4
												{
													OFFSET -0.000000 2.639709 -0.000000
													CHANNELS 3 Zrotation Yrotation Xrotation
													End Site
													{
														OFFSET 0.000000 0.000000 0.000000
													}
												}
											}
										}
									}
									JOINT LeftForeArmEnd
									{
										OFFSET 0.000000 0.000000 0.000000
										CHANNELS 3 Zrotation Yrotation Xrotation
										End Site
										{
											OFFSET 0.000000 0.000000 0.000000
										}
									}
								}
								JOINT LeftArmEnd
								{
									OFFSET 0.000000 0.000000 0.000000
									CHANNELS 3 Zrotation Yrotation Xrotation
									End Site
									{
										OFFSET 0.000000 0.000000 0.000000
									}
								}
							}
						}
					}
				}
			}
		}
	}
	JOINT RightUpLeg
	{
		OFFSET -11.289943 0.000000 0.000000
		CHANNELS 3 Zrotation Yrotation Xrotation
		JOINT RightLeg
		{
			OFFSET 0.000000 -38.200325 0.000000
			CHANNELS 3 Zrotation Yrotation Xrotation
			JOINT RightFoot
			{
				OFFSET -0.000000 -39.900856 -0.000000
				CHANNELS 3 Zrotation Yrotation Xrotation
				JOINT RightToeBase
				{
					OFFSET 0.000000 0.000000 15.261641
					CHANNELS 3 Zrotation Yrotation Xrotation
					JOINT RightToeBaseEnd
					{
						OFFSET 0.000000 0.000000 7.370709
						CHANNELS 3 Zrotation Yrotation Xrotation
						End Site
						{
							OFFSET 0.000000 0.000000 0.000000
						}
					}
				}
				JOINT RightLegEnd
				{
					OFFSET 0.000000 0.000000 0.000000
					CHANNELS 3 Zrotation Yrotation Xrotation
					End Site
					{
						OFFSET 0.000000 0.000000 0.000000
					}
				}
			}
			JOINT RightUpLegEnd
			{
				OFFSET 0.000000 0.000000 0.000000
				CHANNELS 3 Zrotation Yrotation Xrotation
				End Site
				{
					OFFSET 0.000000 0.000000 0.000000
				}
			}
		}
	}
	JOINT LeftUpLeg
	{
		OFFSET 11.315661 -0.000000 0.000000
		CHANNELS 3 Zrotation Yrotation Xrotation
		JOINT LeftLeg
		{
			OFFSET -0.000000 -38.200325 -0.000000
			CHANNELS 3 Zrotation Yrotation Xrotation
			JOINT LeftFoot
			{
				OFFSET 0.000000 -39.900856 -0.000000
				CHANNELS 3 Zrotation Yrotation Xrotation
				JOINT LeftToeBase
				{
					OFFSET -0.000000 -0.000000 15.261641
					CHANNELS 3 Zrotation Yrotation Xrotation
					JOINT LeftToeBaseEnd
					{
						OFFSET 0.000000 -0.000000 7.539996
						CHANNELS 3 Zrotation Yrotation Xrotation
						End Site
						{
							OFFSET 0.000000 0.000000 0.000000
						}
					}
				}
				JOINT LeftLegEnd
				{
					OFFSET 0.000000 0.000000 0.000000
					CHANNELS 3 Zrotation Yrotation Xrotation
					End Site
					{
						OFFSET 0.000000 0.000000 0.000000
					}
				}
			}
			JOINT LeftUpLegEnd
			{
				OFFSET 0.000000 0.000000 0.000000
				CHANNELS 3 Zrotation Yrotation Xrotation
				End Site
				{
					OFFSET 0.000000 0.000000 0.000000
				}
			}
		}
	}
}
MOTION
Frames: 4
Frame Time: 0.016667
0.115121 88.915817 3.011893 -0.411313 -1.431631 -10.601335 1.435702 0.196061 6.818317 -1.332743 0.438107 2.881889 0.880347 -0.333687 3.842622 -1.532908 0.617961 4.435633 -1.356014 0.559776 3.156590 -0.016462 -0.033527 -4.105244 -0.424246 -1.157409 -19.824331 0.000000 0.000000 0.000000 91.959633 -0.232086 10.176555 66.182732 -21.582806 4.142797 -0.559660 19.700794 49.990082 0.274814 16.496843 -0.950204 20.514839 29.882219 61.384212 -9.185291 -13.510077 -22.563532 -6.844754 -8.884652 -15.685235 0.000000 0.000000 0.000000 16.457394 -11.581141 3.067638 11.471133 0.091613 2.111488 11.116075 -0.356406 2.006361 0.000000 0.000000 0.000000 15.612717 -6.106075 1.685964 10.150489 0.342271 0.832124 10.885950 -0.142781 0.708120 0.000000 0.000000 0.000000 15.502676 1.826038 0.534310 10.876233 -0.762189 -1.203554 10.975026 0.174790 -0.873591 0.000000 0.000000 0.000000 13.688112 10.636927 -1.545672 10.427581 -1.291905 -3.385180 10.478574 0.600587 -2.851439 0.000000 0.000000 0.000000 0.000000 0.000000 0.000000 0.000000 0.000000 0.000000 -88.454575 0.301853 4.309829 -73.824181 9.491972 -8.758328 -0.257513 -16.636049 69.757301 -4.696673 -28.495768 -5.890912 -24.418695 -29.219231 58.071686 11.431618 21.239500 -33.378960 9.305788 14.184785 -23.301033 0.000000 0.000000 0.000000 -46.090553 -1.714945 -1.552776 -31.128344 -0.249689 -2.665302 -30.894167 -0.740012 -2.500172 0.000000 0.000000 0.000000 -45.235271 3.566526 -1.331710 -31.147890 0.163729 -1.158635 -31.078274 -0.302055 -0.955865 0.000000 0.000000 0.000000 -48.788822 11.952782 -0.840523 -33.522270 -0.479395 1.665179 -33.788967 0.397963 1.259936 0.000000 0.000000 0.000000 -49.381260 20.146704 -0.379915 -33.628345 -0.483914 5.013059 -33.373001 1.374190 4.244245 0.000000 0.000000 0.000000 0.000000 0.000000 0.000000 0.000000 0.000000 0.000000 -0.693534 -9.224718 14.325664 -0.068117 -0.683905 5.109846 -2.564220 -7.668890 17.992489 -0.843436 0.859921 -18.661665 0.000000 0.000000 0.000000 0.000000 0.000000 0.000000 0.000000 0.000000 0.000000 -1.320184 -5.872437 9.601147 0.063778 0.305335 9.504146 3.830902 -0.404326 17.119843 0.328723 -0.377416 -20.819178 0.000000 0.000000 0.000000 0.000000 0.000000 0.000000 0.000000 0.000000 0.000000 
0.110939 88.904839 3.007528 -0.404492 -1.408287 -10.638312 1.441820 0.198831 6.821803 -1.328615 0.439225 2.911598 0.861228 -0.307112 3.819412 -1.547324 0.628345 4.436843 -1.483378 0.626205 3.096845 -0.019727 -0.010756 -4.118797 -0.431483 -1.160570 -19.810223 0.000000 0.000000 0.000000 91.917946 -0.233585 10.220274 66.098328 -21.719234 4.284974 -0.570297 19.716351 50.326462 0.539412 16.054338 -0.911981 20.599855 29.861750 61.309578 -9.251013 -13.669818 -22.795191 -6.901616 -8.993039 -15.854144 0.000000 0.000000 0.000000 17.127680 -11.689114 2.893100 11.886094 0.065313 2.169468 11.537286 -0.381555 2.060570 0.000000 0.000000 0.000000 16.222404 -6.210104 1.579734 10.539197 0.331704 0.857119 11.276883 -0.151667 0.728516 0.000000 0.000000 0.000000 16.035589 1.737286 0.505879 11.249490 -0.744932 -1.242564 11.339571 0.187642 -0.902874 0.000000 0.000000 0.000000 14.149680 10.573003 -1.501189 10.742926 -1.240743 -3.506853 10.798453 0.644523 -2.954156 0.000000 0.000000 0.000000 0.000000 0.000000 0.000000 0.000000 0.000000 0.000000 -88.411232 0.305427 4.306634 -73.768173 9.472215 -8.793803 -0.272714 -16.726484 69.901108 -4.278589 -27.362501 -6.286768 -24.642149 -29.186264 57.892197 11.526081 21.690361 -33.989849 9.427467 14.485496 -23.725178 0.000000 0.000000 0.000000 -47.481922 -1.545804 -1.836391 -32.072292 -0.293760 -2.757022 -31.826094 -0.784496 -2.581547 0.000000 0.000000 0.000000 -46.579597 3.731115 -1.498862 -32.077938 0.144335 -1.196340 -31.997511 -0.319418 -0.987058 0.000000 0.000000 0.000000 -50.098480 12.118800 -0.882832 -34.443783 -0.448933 1.709240 -34.711895 0.420143 1.293469 0.000000 0.000000 0.000000 -50.566864 20.322899 -0.282290 -34.481369 -0.402535 5.143037 -34.234928 1.446537 4.354111 0.000000 0.000000 0.000000 0.000000 0.000000 0.000000 0.000000 0.000000 0.000000 -0.721180 -9.250311 14.363047 -0.069127 -0.688566 5.098965 -2.561017 -7.656851 17.972635 -0.853620 0.866153 -18.620378 0.000000 0.000000 0.000000 0.000000 0.000000 0.000000 0.000000 0.000000 0.000000 -1.311771 -5.873102 9.575030 0.064962 0.307853 9.600868 3.813519 -0.403223 17.097528 0.322124 -0.377528 -20.810938 0.000000 0.000000 0.000000 0.000000 0.000000 0.000000 0.000000 0.000000 0.000000 
0.106720 88.894066 3.002516 -0.396468 -1.382737 -10.670546 1.449471 0.200614 6.825278 -1.325909 0.440679 2.937876 0.840743 -0.283075 3.796318 -1.561690 0.636615 4.438070 -1.585909 0.672506 3.024756 -0.020370 0.001372 -4.138268 -0.435367 -1.164509 -19.798548 0.000000 0.000000 0.000000 91.869972 -0.235396 10.257935 65.996819 -21.886898 4.391458 -0.584115 19.715376 50.669037 0.786031 15.539407 -0.888337 20.673111 29.844378 61.244801 -9.306789 -13.809682 -22.997374 -6.950222 -9.087034 -16.000090 0.000000 0.000000 0.000000 17.750900 -11.790154 2.738088 12.279375 0.040172 2.225251 11.936924 -0.405678 2.112733 0.000000 0.000000 0.000000 16.790192 -6.306964 1.487277 10.903339 0.321651 0.881211 11.644811 -0.160072 0.748149 0.000000 0.000000 0.000000 16.529972 1.655007 0.482121 11.591410 -0.728509 -1.280379 11.674341 0.199837 -0.931438 0.000000 0.000000 0.000000 14.575611 10.513099 -1.457413 11.024678 -1.191734 -3.624279 11.085421 0.686405 -3.053898 0.000000 0.000000 0.000000 0.000000 0.000000 0.000000 0.000000 0.000000 0.000000 -88.364189 0.306436 4.299342 -73.710602 9.455393 -8.831961 -0.287203 -16.796663 70.045303 -3.838832 -26.176722 -6.650255 -24.837242 -29.157129 57.734184 11.608388 22.085239 -34.525146 9.533964 14.749124 -24.095781 0.000000 0.000000 0.000000 -48.711369 -1.393138 -2.073244 -32.893482 -0.334654 -2.842223 -32.635334 -0.825704 -2.657245 0.000000 0.000000 0.000000 -47.766113 3.874342 -1.636695 -32.886635 0.126474 -1.231097 -32.794521 -0.335230 -1.015782 0.000000 0.000000 0.000000 -51.266285 12.260636 -0.913252 -35.248592 -0.420800 1.750282 -35.518917 0.440406 1.324431 0.000000 0.000000 0.000000 -51.626026 20.475842 -0.193333 -35.228790 -0.326989 5.264398 -34.989044 1.513722 4.456924 0.000000 0.000000 0.000000 0.000000 0.000000 0.000000 0.000000 0.000000 0.000000 -0.752909 -9.290365 14.395675 -0.070284 -0.693442 5.089809 -2.557350 -7.643090 17.955547 -0.863380 0.872114 -18.584949 0.000000 0.000000 0.000000 0.000000 0.000000 0.000000 0.000000 0.000000 0.000000 -1.305203 -5.878791 9.540098 0.066200 0.311012 9.703380 3.795240 -0.419892 17.075932 0.315129 -0.378341 -20.809710 0.000000 0.000000 0.000000 0.000000 0.000000 0.000000 0.000000 0.000000 0.000000 
0.102911 88.883896 2.998029 -0.387140 -1.355256 -10.699818 1.458491 0.201697 6.829972 -1.324360 0.442640 2.958077 0.817969 -0.259405 3.778812 -1.576458 0.644055 4.438470 -1.660129 0.692403 2.944758 -0.018124 -0.003181 -4.163304 -0.434275 -1.169924 -19.790722 0.000000 0.000000 0.000000 91.823669 -0.237484 10.288009 65.881271 -22.074541 4.469115 -0.599505 19.698961 51.003796 1.034668 14.978329 -0.876333 20.734669 29.829624 61.189545 -9.353999 -13.929314 -23.170040 -6.991211 -9.166351 -16.123446 0.000000 0.000000 0.000000 18.324045 -11.882926 2.591547 12.642873 0.016576 2.276957 12.307156 -0.428452 2.161040 0.000000 0.000000 0.000000 17.316685 -6.396348 1.399538 11.237856 0.312235 0.903559 11.983928 -0.167874 0.766349 0.000000 0.000000 0.000000 16.992838 1.577326 0.457965 11.901874 -0.713113 -1.315665 11.979429 0.211168 -0.958237 0.000000 0.000000 0.000000 14.974373 10.454277 -1.414874 11.276257 -1.145514 -3.733453 11.342534 0.725460 -3.147180 0.000000 0.000000 0.000000 0.000000 0.000000 0.000000 0.000000 0.000000 0.000000 -88.320389 0.305747 4.286810 -73.649940 9.448880 -8.870669 -0.297843 -16.846563 70.196083 -3.415517 -24.960953 -6.968617 -25.004372 -29.132244 57.597958 11.677744 22.424940 -34.985771 9.624769 14.976056 -24.413465 0.000000 0.000000 0.000000 -49.788719 -1.257295 -2.265330 -33.604176 -0.372300 -2.920047 -33.334404 -0.863605 -2.726483 0.000000 0.000000 0.000000 -48.803562 3.997498 -1.745055 -33.585709 0.110097 -1.262486 -33.481411 -0.349470 -1.041700 0.000000 0.000000 0.000000 -52.295696 12.380713 -0.929089 -35.945827 -0.394946 1.787712 -36.219349 0.458713 1.352442 0.000000 0.000000 0.000000 -52.557411 20.607763 -0.105734 -35.875828 -0.257120 5.375268 -35.641262 1.575712 4.551250 0.000000 0.000000 0.000000 0.000000 0.000000 0.000000 0.000000 0.000000 0.000000 -0.788156 -9.340821 14.426325 -0.071532 -0.698576 5.081791 -2.552610 -7.625614 17.940815 -0.872260 0.877904 -18.556725 0.000000 0.000000 0.000000 0.000000 0.000000 0.000000 0.000000 0.000000 0.000000 -1.301512 -5.892527 9.501936 0.067391 0.314620 9.805695 3.776468 -0.451768 17.056654 0.308037 -0.379749 -20.816067 0.000000 0.000000 0.000000 0.000000 0.000000 0.000000 0.000000 0.000000 0.000000 
